<svg width="64" height="64" viewBox="0 0 64 64" fill="none" xmlns="http://www.w3.org/2000/svg">
  <!-- Yellow background -->
  <rect width="64" height="64" fill="#FFE600"/>
  
  <!-- Bold "S" in black - matching the uploaded design -->
  <path d="M43.5 19.5C41.5 15.5 37 12 30.5 12C21 12 15 17 15 24.5C15 32 21 35 29 37.5C36.5 39.8 39 42 39 46C39 50.5 35 53.5 29.5 53.5C22.5 53.5 18 49.5 16.5 44.5L10 48C12.5 55 20 61 30 61C41 61 48 54 48 45.5C48 37.5 41.5 34 33.5 31.5C26 29.2 23.5 27 23.5 23.5C23.5 19.5 27 16.5 31.5 16.5C36.5 16.5 40 19 42 23L43.5 19.5Z" fill="#000000"/>
</svg>
